<svg width="169" height="40" viewBox="0 0 169 40" fill="none" xmlns="http://www.w3.org/2000/svg">
<rect x="0.25" y="0.25" width="168.5" height="39.5" fill="#FDFDFD" stroke="#121212" stroke-width="0.5"/>
<path d="M15.12 22.76C15.44 23.32 15.7733 23.8133 16.12 24.24C16.48 24.6667 16.88 25 17.32 25.24C17.76 25.48 18.26 25.6 18.82 25.6C19.5667 25.6 20.1667 25.3933 20.62 24.98C21.0733 24.5667 21.3 24.04 21.3 23.4C21.3 22.7733 21.1533 22.2733 20.86 21.9C20.5667 21.5267 20.18 21.2267 19.7 21C19.2333 20.76 18.7333 20.5467 18.2 20.36C17.8533 20.24 17.4667 20.0867 17.04 19.9C16.6133 19.7 16.2067 19.4533 15.82 19.16C15.4333 18.8533 15.1133 18.48 14.86 18.04C14.62 17.6 14.5 17.06 14.5 16.42C14.5 15.7267 14.6733 15.1067 15.02 14.56C15.3667 14.0133 15.8467 13.5867 16.46 13.28C17.0733 12.96 17.7733 12.8 18.56 12.8C19.32 12.8 19.98 12.9467 20.54 13.24C21.1133 13.52 21.6 13.8867 22 14.34C22.4 14.78 22.7133 15.2467 22.94 15.74L21.48 16.58C21.3067 16.2333 21.0867 15.8933 20.82 15.56C20.5533 15.2267 20.2267 14.9533 19.84 14.74C19.4667 14.5267 19.0067 14.42 18.46 14.42C17.7 14.42 17.1467 14.6067 16.8 14.98C16.4533 15.34 16.28 15.7467 16.28 16.2C16.28 16.5867 16.38 16.9467 16.58 17.28C16.78 17.6 17.1133 17.9067 17.58 18.2C18.06 18.48 18.7067 18.76 19.52 19.04C19.8933 19.1733 20.2867 19.3467 20.7 19.56C21.1133 19.7733 21.4933 20.0467 21.84 20.38C22.2 20.7 22.4933 21.0933 22.72 21.56C22.9467 22.0133 23.06 22.56 23.06 23.2C23.06 23.8133 22.94 24.3667 22.7 24.86C22.4733 25.3533 22.1533 25.7733 21.74 26.12C21.34 26.4667 20.88 26.7333 20.36 26.92C19.8533 27.1067 19.32 27.2 18.76 27.2C18 27.2 17.2933 27.04 16.64 26.72C16 26.3867 15.4333 25.9533 14.94 25.42C14.46 24.8733 14.0667 24.2933 13.76 23.68L15.12 22.76ZM26.497 27V25.4H33.557V27H26.497ZM26.497 14.6V13H33.557V14.6H26.497ZM26.497 20.2V18.6H33.157V20.2H26.497ZM25.557 13H27.257V27H25.557V13ZM36.5531 13H38.2531V27H36.5531V13ZM37.4931 14.6V13H40.3531C41.2598 13 42.0665 13.1733 42.7731 13.52C43.4931 13.8533 44.0598 14.3333 44.4731 14.96C44.8998 15.5867 45.1131 16.3333 45.1131 17.2C45.1131 18.0533 44.8998 18.8 44.4731 19.44C44.0598 20.0667 43.4931 20.5533 42.7731 20.9C42.0665 21.2333 41.2598 21.4 40.3531 21.4H37.4931V19.8H40.3531C41.2598 19.8 41.9931 19.58 42.5531 19.14C43.1265 18.7 43.4131 18.0533 43.4131 17.2C43.4131 16.3333 43.1265 15.6867 42.5531 15.26C41.9931 14.82 41.2598 14.6 40.3531 14.6H37.4931ZM48.4502 27V25.4H55.5102V27H48.4502ZM48.4502 14.6V13H55.5102V14.6H48.4502ZM48.4502 20.2V18.6H55.1102V20.2H48.4502ZM47.5102 13H49.2102V27H47.5102V13ZM57.1063 14.6V13H66.0063V14.6H62.4063V27H60.7063V14.6H57.1063ZM67.8031 13H69.5031V27H67.8031V13ZM67.5431 10.5C67.5431 10.1933 67.6498 9.93333 67.8631 9.72C68.0898 9.50667 68.3498 9.4 68.6431 9.4C68.9498 9.4 69.2098 9.50667 69.4231 9.72C69.6365 9.93333 69.7431 10.1933 69.7431 10.5C69.7431 10.7933 69.6365 11.0533 69.4231 11.28C69.2098 11.4933 68.9498 11.6 68.6431 11.6C68.3498 11.6 68.0898 11.4933 67.8631 11.28C67.6498 11.0533 67.5431 10.7933 67.5431 10.5ZM79.7016 20C79.7016 21.0533 79.9282 21.9933 80.3816 22.82C80.8482 23.6467 81.4816 24.3 82.2816 24.78C83.0816 25.26 83.9882 25.5 85.0016 25.5C86.0282 25.5 86.9349 25.26 87.7216 24.78C88.5216 24.3 89.1482 23.6467 89.6016 22.82C90.0682 21.9933 90.3016 21.0533 90.3016 20C90.3016 18.9467 90.0682 18.0067 89.6016 17.18C89.1482 16.3533 88.5216 15.7 87.7216 15.22C86.9349 14.74 86.0282 14.5 85.0016 14.5C83.9882 14.5 83.0816 14.74 82.2816 15.22C81.4816 15.7 80.8482 16.3533 80.3816 17.18C79.9282 18.0067 79.7016 18.9467 79.7016 20ZM77.9016 20C77.9016 18.9733 78.0749 18.0267 78.4216 17.16C78.7816 16.28 79.2816 15.52 79.9216 14.88C80.5616 14.2267 81.3149 13.72 82.1816 13.36C83.0482 12.9867 83.9882 12.8 85.0016 12.8C86.0282 12.8 86.9682 12.9867 87.8216 13.36C88.6882 13.72 89.4416 14.2267 90.0816 14.88C90.7216 15.52 91.2149 16.28 91.5616 17.16C91.9216 18.0267 92.1016 18.9733 92.1016 20C92.1016 21.0133 91.9216 21.96 91.5616 22.84C91.2149 23.72 90.7216 24.4867 90.0816 25.14C89.4416 25.78 88.6882 26.2867 87.8216 26.66C86.9682 27.02 86.0282 27.2 85.0016 27.2C83.9882 27.2 83.0482 27.02 82.1816 26.66C81.3149 26.2867 80.5616 25.78 79.9216 25.14C79.2816 24.4867 78.7816 23.72 78.4216 22.84C78.0749 21.96 77.9016 21.0133 77.9016 20ZM105.102 13H106.802V27.7L96.2023 16.58V27H94.5023V12.3L105.102 23.42V13ZM111.35 22.8L111.95 21.2H118.15L118.75 22.8H111.35ZM115.01 16.16L112.65 21.72L112.49 22.08L110.41 27H108.51L115.01 12.3L121.51 27H119.61L117.57 22.2L117.41 21.8L115.01 16.16ZM129.427 13H131.327L126.667 20.96V27H124.967V20.98L120.307 13H122.207L125.807 19.48L129.427 13ZM133.018 13H134.718V25.4H140.218V27H133.018V13ZM143.967 22.8L144.567 21.2H150.767L151.367 22.8H143.967ZM147.627 16.16L145.267 21.72L145.107 22.08L143.027 27H141.127L147.627 12.3L154.127 27H152.227L150.187 22.2L150.027 21.8L147.627 16.16Z" fill="#3A3A3A"/>
</svg>
